<svg xmlns="http://www.w3.org/2000/svg" xmlns:xlink="http://www.w3.org/1999/xlink" width="466" height="113" viewBox="0 0 466 113">
  <defs>
    <filter id="Rectangle_20" x="0" y="0" width="466" height="113" filterUnits="userSpaceOnUse">
      <feOffset dy="3" input="SourceAlpha"/>
      <feGaussianBlur stdDeviation="3" result="blur"/>
      <feFlood flood-opacity="0.161"/>
      <feComposite operator="in" in2="blur"/>
      <feComposite in="SourceGraphic"/>
    </filter>
  </defs>
  <g transform="matrix(1, 0, 0, 1, 0, 0)" filter="url(#Rectangle_20)">
    <g id="Rectangle_20-2" data-name="Rectangle 20" transform="translate(9 6)" fill="#707070" stroke="#707070" stroke-width="1">
      <path d="M0,0H448a0,0,0,0,1,0,0V37a58,58,0,0,1-58,58H61A61,61,0,0,1,0,34V0A0,0,0,0,1,0,0Z" stroke="none"/>
      <path d="M.5.5h447a0,0,0,0,1,0,0V37A57.5,57.5,0,0,1,390,94.5H61A60.5,60.5,0,0,1,.5,34V.5A0,0,0,0,1,.5.5Z" fill="none"/>
    </g>
  </g>
</svg>
