<svg xmlns="http://www.w3.org/2000/svg" width="252.448" height="170.987" viewBox="0 0 252.448 170.987">
  <g id="undraw_beer_xg5f" transform="translate(0.006 0)">
    <path id="Path_931" data-name="Path 931" d="M450.347,646.687c-10.084-4.642-18.362-14.436-18.6-25.534a51.149,51.149,0,0,0,33.469,10.632c4.651-.216,9.8-.941,13.536,1.839a11.434,11.434,0,0,1,4.087,7.426,33.959,33.959,0,0,1-.081,8.665l.27.671C472,651.6,460.431,651.329,450.347,646.687Z" transform="translate(-357.731 -482.559)" fill="#f0f0f0"/>
    <path id="Path_932" data-name="Path 932" d="M431.421,620.75a43.719,43.719,0,0,0,20.158,17.809,18.824,18.824,0,0,0,5.683,1.581,10.8,10.8,0,0,0,5.586-1.043,22.345,22.345,0,0,1,5.007-2.049,6.611,6.611,0,0,1,5.242,1.327,17.177,17.177,0,0,1,4.258,5.347c1.28,2.194,2.574,4.494,4.735,5.941.262.175-.025.571-.287.4-3.76-2.517-4.835-7.285-7.956-10.388a6.7,6.7,0,0,0-5.462-2.211,17.338,17.338,0,0,0-5.122,1.983,11.522,11.522,0,0,1-5.424,1.223,17.4,17.4,0,0,1-5.723-1.357,42.415,42.415,0,0,1-11.346-6.855,44.494,44.494,0,0,1-9.8-11.507C430.813,620.678,431.262,620.482,431.421,620.75Z" transform="translate(-357.172 -482.194)" fill="#fff"/>
    <path id="Path_933" data-name="Path 933" d="M470.243,674.265a6.559,6.559,0,0,1-8.06,2.678c-.292-.119-.121-.577.171-.458a6.074,6.074,0,0,0,7.493-2.506C470.009,673.708,470.4,674,470.243,674.265Z" transform="translate(-378.618 -518.921)" fill="#fff"/>
    <path id="Path_934" data-name="Path 934" d="M519.425,663.908a12.642,12.642,0,0,0-5.229-7.585c-.261-.176.026-.572.287-.4a13.15,13.15,0,0,1,5.426,7.9c.071.307-.412.383-.483.078Z" transform="translate(-414.526 -506.514)" fill="#fff"/>
    <path id="Path_935" data-name="Path 935" d="M451.826,639.17a3.713,3.713,0,0,0,.9-3.407c-.075-.306.409-.382.483-.077a4.161,4.161,0,0,1-.982,3.772.253.253,0,0,1-.342.055A.246.246,0,0,1,451.826,639.17Z" transform="translate(-371.546 -492.45)" fill="#fff"/>
    <path id="Path_936" data-name="Path 936" d="M513.077,541.981c.052.19.1.38.161.571A48.892,48.892,0,0,0,516,549.989c.084.187.171.375.26.559a51.547,51.547,0,0,0,11.215,15.31,50.06,50.06,0,0,0,5.931,4.762c2.893,1.981,6.188,3.9,8.2,6.639a8.57,8.57,0,0,1,.585.888L536.7,595.4c-.032.033-.06.067-.093.1l-.187.7c-.113-.066-.229-.138-.342-.2-.066-.038-.13-.08-.2-.119-.043-.027-.087-.054-.128-.075l-.04-.025c-.041-.022-.076-.046-.113-.066q-.974-.6-1.943-1.207s0,0-.007-.006a73.607,73.607,0,0,1-13.622-10.828c-.121-.125-.245-.251-.363-.384a47.77,47.77,0,0,1-4.9-6.06,42.241,42.241,0,0,1-2.214-3.654,35.115,35.115,0,0,1-3.612-10.368c-1.3-7.225-.276-14.785,3.82-20.763C512.864,542.282,512.968,542.133,513.077,541.981Z" transform="translate(-410.606 -427.951)" fill="#f0f0f0"/>
    <path id="Path_937" data-name="Path 937" d="M522.447,541.671a43.719,43.719,0,0,0,5.373,26.356,18.825,18.825,0,0,0,3.586,4.684,10.8,10.8,0,0,0,5.088,2.531,22.356,22.356,0,0,1,5.231,1.378,6.612,6.612,0,0,1,3.387,4.215,17.18,17.18,0,0,1,.181,6.833c-.3,2.523-.65,5.138.2,7.594.1.3-.364.441-.468.144-1.487-4.273.525-8.728-.1-13.084a6.7,6.7,0,0,0-3.03-5.053,17.34,17.34,0,0,0-5.284-1.5,11.521,11.521,0,0,1-5.067-2.289,17.4,17.4,0,0,1-3.752-4.529,42.413,42.413,0,0,1-4.932-12.3,44.494,44.494,0,0,1-.894-15.086C522.005,541.247,522.482,541.361,522.447,541.671Z" transform="translate(-419.77 -427.532)" fill="#fff"/>
    <path id="Path_938" data-name="Path 938" d="M518.288,612.379a6.559,6.559,0,0,1-8.048-2.715c-.161-.27.251-.534.413-.263a6.074,6.074,0,0,0,7.491,2.51C518.437,611.794,518.579,612.262,518.288,612.379Z" transform="translate(-411.844 -474.376)" fill="#fff"/>
    <path id="Path_939" data-name="Path 939" d="M566.39,629.137a12.642,12.642,0,0,0,.391-9.2c-.1-.3.365-.441.468-.144a13.15,13.15,0,0,1-.427,9.578C566.695,629.655,566.263,629.424,566.39,629.137Z" transform="translate(-450.583 -481.506)" fill="#fff"/>
    <path id="Path_940" data-name="Path 940" d="M523.413,569.9a3.713,3.713,0,0,0,2.766-2.182c.124-.29.556-.059.432.229a4.16,4.16,0,0,1-3.055,2.42.253.253,0,0,1-.306-.162A.246.246,0,0,1,523.413,569.9Z" transform="translate(-420.836 -445.608)" fill="#fff"/>
    <path id="Path_941" data-name="Path 941" d="M890.28,669.824a22.706,22.706,0,0,1-4.04,5.83q-.554.577-1.139,1.117c-.27.251-.546.5-.828.738H865.165c.016-.248.043-.493.081-.738a6.09,6.09,0,0,1,.816-2.24c1.588-2.556,4.855-3.341,7.7-4.312.68-.233,1.353-.487,2.014-.766.853-.357,1.691-.751,2.507-1.179a33.311,33.311,0,0,0,9.627-7.595c.087-.1.171-.2.254-.3a31.654,31.654,0,0,0,3.006-4.16c.068-.105.13-.214.2-.323.04.112.081.227.121.338A18.006,18.006,0,0,1,890.28,669.824Z" transform="translate(-656.679 -506.522)" fill="#f0f0f0"/>
    <path id="Path_942" data-name="Path 942" d="M901.83,655.689c-.016.1-.031.2-.049.295a28.568,28.568,0,0,1-1.815,6.242,28.907,28.907,0,0,1-1.3,2.705,28.545,28.545,0,0,1-3.292,4.806c-.068.081-.14.161-.208.242q-.81.926-1.7,1.762a11.3,11.3,0,0,1-3.118,2.172,7.1,7.1,0,0,1-2.972.571c-.192,0-.385-.009-.58-.022-.782-.05-1.582-.155-2.37-.133a5.061,5.061,0,0,0-1.179.155,4.076,4.076,0,0,0-2.467,2.038,5.773,5.773,0,0,0-.295.586c-.022.05-.043.1-.062.152h-.341a6.572,6.572,0,0,1,.335-.738c.065-.127.137-.251.211-.372a4.278,4.278,0,0,1,2.839-2.038,5.805,5.805,0,0,1,1.086-.1c.8-.012,1.61.1,2.411.143.084,0,.168.009.251.009.105,0,.214,0,.319,0a6.805,6.805,0,0,0,3.034-.71,12.272,12.272,0,0,0,3.044-2.3c.481-.475.943-.971,1.384-1.483.022-.022.04-.043.059-.065a27.96,27.96,0,0,0,4.555-7.356c.043-.1.084-.192.124-.289a28.376,28.376,0,0,0,1.728-6c.019-.1.034-.2.049-.292C901.545,655.478,901.861,655.49,901.83,655.689Z" transform="translate(-666.97 -506.274)" fill="#fff"/>
    <path id="Path_943" data-name="Path 943" d="M928.158,700.517a4.239,4.239,0,0,0,5.481-.3c.147-.141-.064-.376-.212-.235a3.925,3.925,0,0,1-5.1.269C928.167,700.127,928,700.394,928.158,700.517Z" transform="translate(-700.084 -536.902)" fill="#fff"/>
    <path id="Path_944" data-name="Path 944" d="M903.253,702.488a8.171,8.171,0,0,1,1.347-5.8c.115-.168-.151-.338-.266-.17a8.5,8.5,0,0,0-1.389,6.038C902.975,702.757,903.283,702.688,903.253,702.488Z" transform="translate(-682.675 -534.495)" fill="#fff"/>
    <path id="Path_945" data-name="Path 945" d="M940.022,672.072a2.4,2.4,0,0,1-1.346-1.837c-.027-.2-.336-.133-.309.068a2.689,2.689,0,0,0,1.484,2.035.163.163,0,0,0,.218-.048A.159.159,0,0,0,940.022,672.072Z" transform="translate(-707.17 -516.331)" fill="#fff"/>
    <path id="Path_946" data-name="Path 946" d="M863.67,648.883c-.112.918-.267,1.821-.465,2.718v0a30.833,30.833,0,0,1-1.514,4.806v0c-.04.109-.084.211-.127.313-.307.742-.639,1.471-.993,2.193-.121.248-.245.493-.372.738h-12.45l-.6-.738-.211-.261a5.5,5.5,0,0,1,.143-.673c.558-2.125,2.085-4.058,3.357-5.935a32.225,32.225,0,0,0,2.435-4.269,33.268,33.268,0,0,0,3.118-11.861c.009-.133.016-.267.022-.4a31.77,31.77,0,0,0-.1-5.125v-.006c-.012-.124-.025-.251-.04-.375.1.068.2.13.295.2h0v0h0a18.022,18.022,0,0,1,7.21,11.551c0,.009,0,.019.006.028A22.792,22.792,0,0,1,863.67,648.883Z" transform="translate(-644.105 -488.672)" fill="#f0f0f0"/>
    <path id="Path_947" data-name="Path 947" d="M869.246,644.745c-.006.105-.012.208-.022.313-.059.816-.155,1.629-.292,2.432a11.309,11.309,0,0,1-1.185,3.611,7.075,7.075,0,0,1-2.029,2.243q-.233.177-.475.335a11.226,11.226,0,0,0-2.823,2.153,3.933,3.933,0,0,0-.776,2.777,5.41,5.41,0,0,0,.1.738h-.319a5.788,5.788,0,0,1-.09-.608q0-.065-.009-.13a4.252,4.252,0,0,1,1.049-3.208,14.446,14.446,0,0,1,2.817-2.069c.071-.047.14-.1.208-.146.087-.059.174-.124.258-.189a6.7,6.7,0,0,0,1.995-2.392,12.153,12.153,0,0,0,1.046-3.664q.144-1.005.217-2.017c0-.031,0-.059,0-.09v0a28.17,28.17,0,0,0-.785-8.613c-.028-.1-.056-.2-.081-.3a28.267,28.267,0,0,0-2.231-5.83v-.006c-.046-.087-.09-.174-.137-.261-.1-.177.164-.36.258-.18.047.087.09.174.133.261h0v0a28.359,28.359,0,0,1,2.321,6.121,27.678,27.678,0,0,1,.58,2.9,28.536,28.536,0,0,1,.267,5.823Z" transform="translate(-654.018 -488.362)" fill="#fff"/>
    <path id="Path_948" data-name="Path 948" d="M885.971,671.237a4.239,4.239,0,0,0,4.2-3.54c.033-.2-.278-.261-.31-.06a3.925,3.925,0,0,1-3.91,3.284C885.744,670.92,885.769,671.235,885.971,671.237Z" transform="translate(-670.917 -514.537)" fill="#fff"/>
    <path id="Path_949" data-name="Path 949" d="M869.471,692.915a8.171,8.171,0,0,1-2.417-5.442c-.009-.2-.324-.179-.315.024a8.5,8.5,0,0,0,2.526,5.658C869.411,693.3,869.616,693.058,869.471,692.915Z" transform="translate(-657.765 -528.207)" fill="#fff"/>
    <path id="Path_950" data-name="Path 950" d="M877.945,648.421a2.4,2.4,0,0,1-2.18-.656c-.144-.145-.348.1-.206.24a2.689,2.689,0,0,0,2.41.731.163.163,0,0,0,.145-.17A.159.159,0,0,0,877.945,648.421Z" transform="translate(-663.815 -500.884)" fill="#fff"/>
    <path id="Path_951" data-name="Path 951" d="M197.3,231.652c.3-11.1,6.049-22.56,16.161-27.142a51.148,51.148,0,0,0,3.39,34.953c2.028,4.191,4.72,8.641,3.634,13.168a11.434,11.434,0,0,1-5.22,6.679,33.958,33.958,0,0,1-8,3.334l-.51.513C201.3,253.487,197,242.75,197.3,231.652Z" transform="translate(-196.006 -195.18)" fill="#f0f0f0"/>
    <path id="Path_952" data-name="Path 952" d="M229.965,204.2a43.718,43.718,0,0,0-8.444,25.538,18.827,18.827,0,0,0,.782,5.847,10.8,10.8,0,0,0,3.156,4.726,22.35,22.35,0,0,1,3.853,3.8,6.612,6.612,0,0,1,.842,5.341,17.178,17.178,0,0,1-3.241,6.018c-1.514,2.04-3.119,4.134-3.6,6.69-.058.31-.535.2-.477-.108.835-4.447,4.8-7.311,6.421-11.4a6.7,6.7,0,0,0-.116-5.891,17.339,17.339,0,0,0-3.838-3.929,11.522,11.522,0,0,1-3.258-4.506,17.4,17.4,0,0,1-1-5.8,42.415,42.415,0,0,1,1.84-13.128,44.493,44.493,0,0,1,6.726-13.533c.186-.253.542.082.358.334Z" transform="translate(-212.39 -194.676)" fill="#fff"/>
    <path id="Path_953" data-name="Path 953" d="M209.582,263.237a6.559,6.559,0,0,1-5.632-6.357c-.005-.315.483-.338.489-.023a6.074,6.074,0,0,0,5.251,5.9C210,262.8,209.892,263.28,209.582,263.237Z" transform="translate(-200.605 -231.131)" fill="#fff"/>
    <path id="Path_954" data-name="Path 954" d="M232.627,302.12a12.642,12.642,0,0,0,4.917-7.792c.059-.309.536-.2.477.108a13.15,13.15,0,0,1-5.133,8.1C232.634,302.72,232.374,302.305,232.627,302.12Z" transform="translate(-220.314 -257.004)" fill="#fff"/>
    <path id="Path_955" data-name="Path 955" d="M232.612,232.109a3.713,3.713,0,0,0,3.485-.517c.252-.189.512.225.261.414a4.16,4.16,0,0,1-3.854.581.253.253,0,0,1-.185-.293.246.246,0,0,1,.293-.185Z" transform="translate(-220.17 -213.826)" fill="#fff"/>
    <path id="Path_956" data-name="Path 956" d="M267.886,256.429c-.154.123-.308.246-.462.373a48.9,48.9,0,0,0-5.752,5.461c-.139.15-.278.3-.412.459a51.547,51.547,0,0,0-9.664,16.333,50.059,50.059,0,0,0-2.045,7.326c-.683,3.439-1.15,7.222-2.879,10.149a8.584,8.584,0,0,1-.586.887l-18.015,1.746c-.043-.017-.086-.029-.129-.046l-.716.1c.017-.13.036-.265.053-.4.009-.076.023-.152.032-.227.007-.05.015-.1.019-.147,0-.017.005-.034.008-.046,0-.046.012-.088.017-.13.11-.753.223-1.507.345-2.261,0,0,0,0,0-.009a73.6,73.6,0,0,1,4.6-16.783c.068-.16.134-.324.21-.485a47.768,47.768,0,0,1,3.643-6.892,42.235,42.235,0,0,1,2.489-3.473,35.116,35.116,0,0,1,8.111-7.4c6.131-4.038,13.484-6.07,20.591-4.655C267.526,256.352,267.7,256.389,267.886,256.429Z" transform="translate(-216.661 -230.603)" fill="#f0f0f0"/>
    <path id="Path_957" data-name="Path 957" d="M267.954,257.332a43.718,43.718,0,0,0-22.118,15.307,18.826,18.826,0,0,0-2.9,5.139,10.8,10.8,0,0,0-.325,5.674,22.35,22.35,0,0,1,.79,5.352,6.612,6.612,0,0,1-2.543,4.772,17.179,17.179,0,0,1-6.211,2.854c-2.437.717-4.98,1.423-6.9,3.175-.233.212-.549-.162-.316-.373,3.344-3.048,8.231-2.95,11.991-5.238a6.7,6.7,0,0,0,3.454-4.774,17.339,17.339,0,0,0-.7-5.448,11.523,11.523,0,0,1,.111-5.559,17.4,17.4,0,0,1,2.688-5.231,42.415,42.415,0,0,1,9.373-9.374,44.493,44.493,0,0,1,13.518-6.756c.3-.091.383.392.084.482Z" transform="translate(-216.747 -231.273)" fill="#fff"/>
    <path id="Path_958" data-name="Path 958" d="M288.029,280.8a6.559,6.559,0,0,1-.67-8.467c.185-.255.589.021.4.276a6.074,6.074,0,0,0,.639,7.875C288.626,280.707,288.251,281.021,288.029,280.8Z" transform="translate(-257.281 -241.891)" fill="#fff"/>
    <path id="Path_959" data-name="Path 959" d="M275.045,332.415a12.642,12.642,0,0,0,8.617-3.261c.234-.211.549.162.316.373A13.15,13.15,0,0,1,275,332.9C274.689,332.9,274.732,332.41,275.045,332.415Z" transform="translate(-249.466 -281.11)" fill="#fff"/>
    <path id="Path_960" data-name="Path 960" d="M327.068,270.807a3.713,3.713,0,0,0,3.094,1.685c.315,0,.273.488-.041.488a4.161,4.161,0,0,1-3.427-1.857.253.253,0,0,1,.029-.345A.246.246,0,0,1,327.068,270.807Z" transform="translate(-285.231 -240.849)" fill="#fff"/>
    <path id="Path_961" data-name="Path 961" d="M632.1,498.733H580.6a10.87,10.87,0,0,1-10.857-10.857V408.449A10.87,10.87,0,0,1,580.6,397.592h51.5a10.87,10.87,0,0,1,10.857,10.857v79.426A10.87,10.87,0,0,1,632.1,498.733Z" transform="translate(-452.911 -328.358)" fill="#fff"/>
    <path id="Path_962" data-name="Path 962" d="M639.28,508.381H598.945a10.714,10.714,0,0,1-10.7-10.7V433.717a10.714,10.714,0,0,1,10.7-10.7H639.28a10.714,10.714,0,0,1,10.7,10.7v63.961A10.715,10.715,0,0,1,639.28,508.381Z" transform="translate(-465.672 -345.894)" fill="#707070"/>
    <rect id="Rectangle_72" data-name="Rectangle 72" width="72.598" height="16.753" transform="translate(117.288 139.208)" fill="#3f3d56"/>
    <path id="Path_963" data-name="Path 963" d="M207.517,275.276,195.223,259.47a9.844,9.844,0,0,1,1.727-13.814l49.792-38.727a18.8,18.8,0,0,1,10.115-3.915l4.2-.325,36.161-21.18a3.1,3.1,0,0,1,5.267-3.2l10.286,13.224a3.1,3.1,0,0,1-4.411,4.306l-29.58,29.58a18.723,18.723,0,0,1-7.117,12.434L221.331,277A9.844,9.844,0,0,1,207.517,275.276Z" transform="translate(-193.155 -176.283)" fill="#fff"/>
    <path id="Path_964" data-name="Path 964" d="M632.1,498.733H580.6a10.87,10.87,0,0,1-10.857-10.857V408.449A10.87,10.87,0,0,1,580.6,397.592h51.5a10.87,10.87,0,0,1,10.857,10.857v79.426A10.87,10.87,0,0,1,632.1,498.733ZM580.6,398.212a10.249,10.249,0,0,0-10.237,10.237v79.426A10.249,10.249,0,0,0,580.6,498.112h51.5a10.249,10.249,0,0,0,10.237-10.237V408.449A10.249,10.249,0,0,0,632.1,398.212Z" transform="translate(-452.911 -328.358)" fill="#3f3d56"/>
    <path id="Path_965" data-name="Path 965" d="M569.03,183.543a18.661,18.661,0,0,1,17.222,1.623c5.2,3.336,9.068,9.347,10.361,16.085.634,3.3.863,7.144,3.173,9.2,1.692,1.506,4,1.545,6.033,2.273,6.022,2.153,9.13,10.51,8.253,17.768S609.29,244,605.1,249.474c1.333-2.941-.4-6.754-2.929-8.3s-5.547-1.413-8.4-1.158-5.818.579-8.475-.645c-4.54-2.092-6.838-8.152-7.181-13.818s.79-11.313.871-16.992-1.18-11.9-5.1-15.283c-1.8-1.555-4.036-2.385-5.715-4.121s-2.579-5.031-1.011-6.9" transform="translate(-450.57 -179.761)" fill="#707070"/>
    <path id="Path_966" data-name="Path 966" d="M623.021,351.888c-.162,0-.323.006-.483.015a8.379,8.379,0,0,0-11.489-10.374c-1.343-3.779-4.229-6.394-7.573-6.394s-6.231,2.615-7.574,6.394a8.388,8.388,0,0,0-7.191,0c-1.343-3.779-4.229-6.394-7.574-6.394s-6.231,2.615-7.573,6.394a8.379,8.379,0,0,0-11.487,10.379c-.161-.012-.322-.02-.485-.02-4.626,0-8.377,5-8.377,11.169s3.75,11.169,8.377,11.169c3.81,0,7.024-3.393,8.04-8.036a8.38,8.38,0,0,0,9.516,1.642c1.343,3.779,4.229,6.394,7.573,6.394,3.81,0,7.024-3.393,8.04-8.036a8.38,8.38,0,0,0,9.516,1.642c1.343,3.779,4.229,6.394,7.574,6.394s6.231-2.615,7.573-6.394a8.377,8.377,0,1,0,3.6-15.944Z" transform="translate(-441.511 -285.278)" fill="#f0f0f0"/>
    <circle id="Ellipse_1" data-name="Ellipse 1" cx="1.551" cy="1.551" r="1.551" transform="translate(135.282 87.397)" fill="#fff"/>
    <circle id="Ellipse_2" data-name="Ellipse 2" cx="1.551" cy="1.551" r="1.551" transform="translate(144.9 113.768)" fill="#fff"/>
    <circle id="Ellipse_3" data-name="Ellipse 3" cx="1.551" cy="1.551" r="1.551" transform="translate(154.828 95.773)" fill="#fff"/>
    <circle id="Ellipse_4" data-name="Ellipse 4" cx="1.551" cy="1.551" r="1.551" transform="translate(143.659 101.358)" fill="#fff"/>
    <circle id="Ellipse_5" data-name="Ellipse 5" cx="1.551" cy="1.551" r="1.551" transform="translate(163.205 118.111)" fill="#fff"/>
    <circle id="Ellipse_6" data-name="Ellipse 6" cx="1.551" cy="1.551" r="1.551" transform="translate(168.789 87.397)" fill="#fff"/>
    <path id="Path_967" data-name="Path 967" d="M804.742,510.707v-.62a28.937,28.937,0,1,0,0-57.875v-.621a29.558,29.558,0,0,1,0,59.116Z" transform="translate(-615.003 -365.604)" fill="#3f3d56"/>
    <path id="Path_968" data-name="Path 968" d="M804.525,522.78h-.31V522h.62v.16a22.174,22.174,0,1,0-.31-44.347v-.62a22.795,22.795,0,1,1,0,45.589Z" transform="translate(-614.639 -383.261)" fill="#3f3d56"/>
    <path id="Path_969" data-name="Path 969" d="M220.419,299.269,209.85,285.68a8.352,8.352,0,0,1,1.465-11.72l42.81-33.3a16.052,16.052,0,0,1,8.636-3.343l3.636-.282,33.518-19.632,9.011,11.585-27.431,27.431a15.987,15.987,0,0,1-6.082,10.654l-43.273,33.657A8.351,8.351,0,0,1,220.419,299.269Z" transform="translate(-203.461 -204.075)" fill="#707070"/>
    <path id="Path_970" data-name="Path 970" d="M519.074,190.065a4.044,4.044,0,0,0,3.456-.862c1.623-1.262,2.171-3.272,1.224-4.49a2.155,2.155,0,0,0-.629-.544,2.5,2.5,0,0,0-.35-2.231,2.134,2.134,0,0,0-.428-.413c1.068-1.478,1.468-2.8.918-3.506a1.565,1.565,0,0,0-1.267-.5,2.344,2.344,0,0,0-.447-1.7c-.8-1.028-2.409-1.158-3.868-.415-.018-.025-.032-.051-.051-.075-.947-1.217-3.03-1.181-4.653.082a4.325,4.325,0,0,0-1.621,2.464,4.325,4.325,0,0,0-2.787.965c-1.623,1.262-2.171,3.272-1.224,4.49.042.054.088.1.135.151l-.019.02c-.037-.058-.073-.116-.115-.171-.947-1.217-3.03-1.181-4.653.082a4.325,4.325,0,0,0-1.621,2.464,4.325,4.325,0,0,0-2.787.965c-1.623,1.262-2.171,3.272-1.224,4.49s3.03,1.181,4.653-.082a2.788,2.788,0,0,0,.518,4.724,1.977,1.977,0,0,0-.028,1.969c.55.707,1.929.644,3.624-.027a2.13,2.13,0,0,0,.295.516c.947,1.217,3.03,1.181,4.653-.082a4.326,4.326,0,0,0,1.621-2.464,4.326,4.326,0,0,0,2.787-.965,4.86,4.86,0,0,1,2.2-1.714A4.044,4.044,0,0,0,519.074,190.065Z" transform="translate(-402.459 -174.436)" fill="#f0f0f0"/>
    <path id="Path_971" data-name="Path 971" d="M207.517,275.276,195.223,259.47a9.844,9.844,0,0,1,1.727-13.814l49.792-38.727a18.8,18.8,0,0,1,10.115-3.915l4.2-.325,36.161-21.18a3.1,3.1,0,0,1,5.267-3.2l10.286,13.224a3.1,3.1,0,0,1-4.411,4.306l-29.58,29.58a18.723,18.723,0,0,1-7.117,12.434L221.331,277A9.844,9.844,0,0,1,207.517,275.276Zm94.478-96.582a2.481,2.481,0,0,0-4.1,2.777l.157.268L261.247,203.3l-4.342.336a18.181,18.181,0,0,0-9.782,3.786l-49.792,38.727a9.223,9.223,0,0,0-1.618,12.944l12.293,15.806a9.223,9.223,0,0,0,12.944,1.618l50.331-39.146a18.108,18.108,0,0,0,6.9-12.127l.013-.106,30.158-30.158.219.22a2.481,2.481,0,0,0,3.712-3.278Z" transform="translate(-193.155 -176.283)" fill="#3f3d56"/>
    <rect id="Rectangle_73" data-name="Rectangle 73" width="22.338" height="39.091" transform="translate(24.99 53.281) rotate(-37.875)" fill="#3f3d56"/>
    <path id="Path_972" data-name="Path 972" d="M275.121,316.7l23.619,30.367,17.143-13.333L292.264,303.37Z" transform="translate(-249.696 -263.369)" fill="#3f3d56"/>
    <circle id="Ellipse_7" data-name="Ellipse 7" cx="1.551" cy="1.551" r="1.551" transform="translate(92.806 22.603)" fill="#fff"/>
    <circle id="Ellipse_8" data-name="Ellipse 8" cx="1.551" cy="1.551" r="1.551" transform="translate(80.561 25.052)" fill="#fff"/>
    <circle id="Ellipse_9" data-name="Ellipse 9" cx="1.551" cy="1.551" r="1.551" transform="translate(81.296 35.093)" fill="#fff"/>
    <circle id="Ellipse_10" data-name="Ellipse 10" cx="1.551" cy="1.551" r="1.551" transform="translate(69.051 37.542)" fill="#fff"/>
    <circle id="Ellipse_11" data-name="Ellipse 11" cx="1.551" cy="1.551" r="1.551" transform="translate(132.801 19.142)" fill="#fff"/>
    <circle id="Ellipse_12" data-name="Ellipse 12" cx="1.551" cy="1.551" r="1.551" transform="translate(138.385 27.519)" fill="#fff"/>
    <circle id="Ellipse_13" data-name="Ellipse 13" cx="1.551" cy="1.551" r="1.551" transform="translate(138.385 41.48)" fill="#fff"/>
    <path id="Path_973" data-name="Path 973" d="M379.853,173.478Z" transform="translate(-262.008 -119.657)" fill="#f2f2f2"/>
    <path id="Path_974" data-name="Path 974" d="M542.619,347.945c-1.716.054-7.213.414-10.068,2.812-3.411,2.865-3.411,5.586-1.758,7.554s4.333,2.438,7.744-.427c2.892-2.429,4.192-7.887,4.522-9.494Z" transform="translate(-425.302 -294.114)" fill="#f2f2f2"/>
    <path id="Path_975" data-name="Path 975" d="M519.263,60.981Z" transform="translate(-358.167 -42.062)" fill="#f2f2f2"/>
    <path id="Path_976" data-name="Path 976" d="M713.482,230.04c1.092,1.325,4.738,5.454,8.381,6.247,4.353.947,6.506-.717,7.053-3.228s-.72-4.919-5.074-5.867c-3.69-.8-8.8,1.505-10.277,2.227Z" transform="translate(-552.056 -210.709)" fill="#f2f2f2"/>
    <path id="Path_977" data-name="Path 977" d="M610.106,191.619Z" transform="translate(-420.826 -132.169)" fill="#f2f2f2"/>
    <path id="Path_978" data-name="Path 978" d="M803.439,366.686c.2,1.705,1.035,7.15,3.671,9.788,3.149,3.151,5.86,2.916,7.678,1.1s2.055-4.527-1.094-7.679c-2.669-2.671-8.219-3.5-9.849-3.685Z" transform="translate(-614.104 -306.712)" fill="#f2f2f2"/>
    <path id="Path_979" data-name="Path 979" d="M558.727,723.553a.371.371,0,0,1-.372.369H357.534a.369.369,0,1,1,0-.738H558.355a.371.371,0,0,1,.372.369Z" transform="translate(-306.286 -552.936)" fill="#3f3d56"/>
  </g>
</svg>
