<svg xmlns="http://www.w3.org/2000/svg" xmlns:xlink="http://www.w3.org/1999/xlink" width="246" height="205" viewBox="0 0 246 205">
  <defs>
    <filter id="Rectangle_6" x="0" y="0" width="246" height="205" filterUnits="userSpaceOnUse">
      <feOffset dy="3" input="SourceAlpha"/>
      <feGaussianBlur stdDeviation="3" result="blur"/>
      <feFlood flood-opacity="0.161"/>
      <feComposite operator="in" in2="blur"/>
      <feComposite in="SourceGraphic"/>
    </filter>
  </defs>
  <g id="Component_10_1" data-name="Component 10 – 1" transform="translate(9 6)">
    <g id="Component_4_1" data-name="Component 4 – 1">
      <g transform="matrix(1, 0, 0, 1, -9, -6)" filter="url(#Rectangle_6)">
        <g id="Rectangle_6-2" data-name="Rectangle 6" transform="translate(9 6)" fill="#ededd0" stroke="#ededd0" stroke-width="1">
          <rect width="228" height="187" rx="10" stroke="none"/>
          <rect x="0.5" y="0.5" width="227" height="186" rx="9.5" fill="none"/>
        </g>
      </g>
      <g id="no-drinks-alcohol-svgrepo-com" transform="translate(13.899 38.098)">
        <g id="Group_28311" data-name="Group 28311" transform="translate(86.572 26.059)">
          <path id="Path_980" data-name="Path 980" d="M196.79,166.752a20.2,20.2,0,0,1-1.677-3.842H180.051a19.523,19.523,0,0,1-1.776,4.017c-3.109,4.881-3.723,7.369-3.723,16.458v10.051Z" transform="translate(-174.552 -162.91)" fill="#707070"/>
          <path id="Path_981" data-name="Path 981" d="M174.551,250.877v14.731H200.61V232.1c0-5.472-.227-8.549-1.083-11.2Z" transform="translate(-174.551 -211.628)" fill="#707070"/>
        </g>
        <path id="Path_982" data-name="Path 982" d="M175.389,329.073h25.925V314.182H187.8Z" transform="translate(-88.683 -263.925)" fill="#707070"/>
        <rect id="Rectangle_76" data-name="Rectangle 76" width="11.168" height="5.584" transform="translate(94.018 1.861)" fill="#707070"/>
        <path id="Path_983" data-name="Path 983" d="M232.461,74.934H221.33a38.449,38.449,0,0,0,1.843-11.168V58.182h7.445v5.584A38.449,38.449,0,0,0,232.461,74.934Z" transform="translate(-127.275 -48.875)" fill="#707070"/>
        <g id="Group_28312" data-name="Group 28312" transform="translate(69.819)">
          <path id="Path_984" data-name="Path 984" d="M188.313,213.944a43.813,43.813,0,0,1,.661,9.469v1.861h-10.1l-3.1,3.723h13.206v11.168H166.638v-.212l-3.723,4.467v12.5a1.86,1.86,0,0,0,1.861,1.861h26.059a1.86,1.86,0,0,0,1.861-1.861v-33.5c0-6.312-.315-9.688-1.565-12.853Zm.661,41.112H166.638V243.888h22.336Z" transform="translate(-148.023 -176.878)" fill="#707070"/>
          <path id="Path_985" data-name="Path 985" d="M166.639,54.352V52.118H168.5l3.1-3.723h-4.964V46.534c0-9.145.652-11.094,3.431-15.459C172,28.047,174.084,21,174.084,14.891V9.307h7.445v5.584c0,6.107,2.083,13.156,4.013,16.185.074.115.141.225.212.337l2.541-3.049a33.778,33.778,0,0,1-3.043-13.473V1.861A1.861,1.861,0,0,0,183.391,0H172.223a1.861,1.861,0,0,0-1.861,1.861v13.03c0,5.188-1.809,11.637-3.432,14.186-3.336,5.24-4.013,8.177-4.013,17.458V58.819Zm7.445-50.629h7.445V5.584h-7.445Z" transform="translate(-148.024)" fill="#707070"/>
          <path id="Path_986" data-name="Path 986" d="M71.679,105.642a1.861,1.861,0,0,1-1.429-3.053L126.091,35.58a1.862,1.862,0,0,1,2.861,2.383L73.111,104.972A1.857,1.857,0,0,1,71.679,105.642Z" transform="translate(-69.819 -29.326)" fill="#707070"/>
        </g>
      </g>
    </g>
    <text id="Non-Alcoholic_Cocktails" data-name="Non-Alcoholic Cocktails" transform="translate(19 133)" fill="#707070" font-size="20" font-family="Montserrat-Medium, Montserrat" font-weight="500"><tspan x="55.5" y="19">Alkolsüz </tspan><tspan x="48.87" y="43">Kokteyller</tspan></text>
  </g>
</svg>
